<mxfile host="app.diagrams.net" agent="Mozilla/5.0 (Windows NT 10.0; Win64; x64) AppleWebKit/537.36 (KHTML, like Gecko) Chrome/135.0.0.0 Safari/537.36 Edg/135.0.0.0" version="26.2.13">
  <diagram name="第 1 页" id="Yp9tG63NJd4hh1dMaYOi">
    <mxGraphModel dx="990" dy="572" grid="1" gridSize="10" guides="1" tooltips="1" connect="1" arrows="1" fold="1" page="1" pageScale="1" pageWidth="827" pageHeight="1169" math="0" shadow="0">
      <root>
        <mxCell id="0" />
        <mxCell id="1" parent="0" />
        <mxCell id="XlS3d0AKigVKQbdMYuhV-4" style="edgeStyle=orthogonalEdgeStyle;rounded=0;orthogonalLoop=1;jettySize=auto;html=1;exitX=0.5;exitY=1;exitDx=0;exitDy=0;entryX=0.5;entryY=0;entryDx=0;entryDy=0;" edge="1" parent="1" source="XlS3d0AKigVKQbdMYuhV-2" target="XlS3d0AKigVKQbdMYuhV-3">
          <mxGeometry relative="1" as="geometry" />
        </mxCell>
        <mxCell id="XlS3d0AKigVKQbdMYuhV-2" value="麦克分输入&lt;div&gt;（唤醒检测模块）&lt;/div&gt;" style="rounded=1;whiteSpace=wrap;html=1;" vertex="1" parent="1">
          <mxGeometry x="120" y="40" width="160" height="80" as="geometry" />
        </mxCell>
        <mxCell id="XlS3d0AKigVKQbdMYuhV-6" style="edgeStyle=orthogonalEdgeStyle;rounded=0;orthogonalLoop=1;jettySize=auto;html=1;exitX=0.5;exitY=1;exitDx=0;exitDy=0;entryX=0.5;entryY=0;entryDx=0;entryDy=0;" edge="1" parent="1" source="XlS3d0AKigVKQbdMYuhV-3" target="XlS3d0AKigVKQbdMYuhV-7">
          <mxGeometry relative="1" as="geometry">
            <mxPoint x="230" y="360" as="targetPoint" />
          </mxGeometry>
        </mxCell>
        <mxCell id="XlS3d0AKigVKQbdMYuhV-3" value="语音识别模块" style="rounded=1;whiteSpace=wrap;html=1;" vertex="1" parent="1">
          <mxGeometry x="120" y="200" width="160" height="80" as="geometry" />
        </mxCell>
        <mxCell id="XlS3d0AKigVKQbdMYuhV-11" style="edgeStyle=orthogonalEdgeStyle;rounded=0;orthogonalLoop=1;jettySize=auto;html=1;exitX=0.5;exitY=1;exitDx=0;exitDy=0;entryX=0.5;entryY=0;entryDx=0;entryDy=0;" edge="1" parent="1" source="XlS3d0AKigVKQbdMYuhV-5" target="XlS3d0AKigVKQbdMYuhV-10">
          <mxGeometry relative="1" as="geometry" />
        </mxCell>
        <mxCell id="XlS3d0AKigVKQbdMYuhV-5" value="控制模块&lt;div&gt;（1.指令生成器）&lt;/div&gt;&lt;div&gt;（2.情绪识别/匹配）&lt;/div&gt;&lt;div&gt;（3.音频播放（音效或背景音）&lt;span style=&quot;background-color: transparent; color: light-dark(rgb(0, 0, 0), rgb(255, 255, 255));&quot;&gt;）&lt;/span&gt;&lt;/div&gt;&lt;div&gt;&lt;span style=&quot;background-color: transparent; color: light-dark(rgb(0, 0, 0), rgb(255, 255, 255));&quot;&gt;（4.Socket通讯与UI层）&lt;/span&gt;&lt;/div&gt;" style="rounded=1;whiteSpace=wrap;html=1;" vertex="1" parent="1">
          <mxGeometry x="100" y="520" width="200" height="120" as="geometry" />
        </mxCell>
        <mxCell id="XlS3d0AKigVKQbdMYuhV-8" style="edgeStyle=orthogonalEdgeStyle;rounded=0;orthogonalLoop=1;jettySize=auto;html=1;exitX=0.5;exitY=1;exitDx=0;exitDy=0;entryX=0.5;entryY=0;entryDx=0;entryDy=0;" edge="1" parent="1" source="XlS3d0AKigVKQbdMYuhV-7" target="XlS3d0AKigVKQbdMYuhV-5">
          <mxGeometry relative="1" as="geometry" />
        </mxCell>
        <mxCell id="XlS3d0AKigVKQbdMYuhV-7" value="语义解析模块" style="rounded=1;whiteSpace=wrap;html=1;" vertex="1" parent="1">
          <mxGeometry x="120" y="360" width="160" height="80" as="geometry" />
        </mxCell>
        <mxCell id="XlS3d0AKigVKQbdMYuhV-12" style="edgeStyle=orthogonalEdgeStyle;rounded=0;orthogonalLoop=1;jettySize=auto;html=1;entryX=1;entryY=0.5;entryDx=0;entryDy=0;exitX=0.5;exitY=0;exitDx=0;exitDy=0;" edge="1" parent="1" source="XlS3d0AKigVKQbdMYuhV-14" target="XlS3d0AKigVKQbdMYuhV-5">
          <mxGeometry relative="1" as="geometry">
            <mxPoint x="320" y="390" as="targetPoint" />
            <mxPoint x="390" y="820" as="sourcePoint" />
            <Array as="points">
              <mxPoint x="440" y="580" />
            </Array>
          </mxGeometry>
        </mxCell>
        <mxCell id="XlS3d0AKigVKQbdMYuhV-15" style="edgeStyle=orthogonalEdgeStyle;rounded=0;orthogonalLoop=1;jettySize=auto;html=1;exitX=1;exitY=0.5;exitDx=0;exitDy=0;entryX=0.5;entryY=1;entryDx=0;entryDy=0;" edge="1" parent="1" source="XlS3d0AKigVKQbdMYuhV-10" target="XlS3d0AKigVKQbdMYuhV-14">
          <mxGeometry relative="1" as="geometry">
            <mxPoint x="470" y="780" as="targetPoint" />
          </mxGeometry>
        </mxCell>
        <mxCell id="XlS3d0AKigVKQbdMYuhV-10" value="GUI系统&lt;div&gt;（1.动作状态机）&lt;/div&gt;&lt;div&gt;（2.表情/动作呈现）&lt;/div&gt;&lt;div&gt;（3.视频图像播放）&lt;/div&gt;&lt;div&gt;（4.语音反馈）&lt;/div&gt;" style="rounded=1;whiteSpace=wrap;html=1;" vertex="1" parent="1">
          <mxGeometry x="100" y="720" width="200" height="120" as="geometry" />
        </mxCell>
        <mxCell id="XlS3d0AKigVKQbdMYuhV-14" value="触控控制" style="rounded=1;whiteSpace=wrap;html=1;" vertex="1" parent="1">
          <mxGeometry x="360" y="640" width="160" height="80" as="geometry" />
        </mxCell>
      </root>
    </mxGraphModel>
  </diagram>
</mxfile>
